<svg xmlns="http://www.w3.org/2000/svg" height="1021.17" width="761.662" version="1.0"><g transform="translate(1.9999999e-6)" fill-rule="evenodd" stroke="#000"><g transform="translate(1.397638,-0.36254054)"><path d="m 652.49293,435.81645 c 12.40834,19.66097 31.03918,42.59334 45.58813,65.93959 -264.7122,116.47703 -304.63614,-166.11248 -304.46327,-209.89051 17.90985,-0.81406 47.13893,-3.42537 55.83251,-3.42537 3.19656,45.31256 83.64401,236.05565 203.03653,147.38097 z" fill="#dc0000" stroke-width="2.162"/><g transform="matrix(1.0169114,0,0,1.0169114,-3.9437348,2.4291494)" fill="#fc0" stroke-width="3"><path d="m 744.91,428.38 c -8.1544,-11.826 -41.41,-60.889 -48.542,-74.015 -18.855,40.666 -27.473,50.504 -39.891,62.72 5.9836,10.225 40.337,58.351 45.193,65.875 13.08,-11.619 32.025,-23.42 43.24,-54.58 z"/><path d="m 739.38141,420.72121 c 0,0.50343 -14.95286,31.15462 -44.94786,50.79062"/><path d="m 732.42,409.69 c 0,0.50347 -16.00145,31.31307 -45.99645,50.94907"/><path d="m 725.6857,399.98383 c 0,0.50352 -15.67784,30.43924 -45.67284,50.07524"/><path d="m 720,391.06 c 0,0.50347 -16.40283,31.71445 -46.39783,51.34945"/><path d="m 712.79655,381.38483 c 0,0 -15.19869,33.02831 -45.19369,52.66331"/><path d="m 704.49,368.4 c 0,0.5035 -12.78283,36.14738 -42.77783,55.78238"/><path d="m 701.67,482.96 c -2.1335,-4.5184 -40.487,-55.376 -46.902,-66.318 -2.432,-4.503 -13.535,2.7196 -11.203,7.2281 6.6797,10.413 44.639,64.122 46.421,66.577 1.6912,4.605 14.05,-3.6345 11.684,-7.4871 z"/></g></g><g transform="matrix(-1,0,0,1,760.26435,-0.36249104)"><path d="m 652.49293,435.81645 c 12.40834,19.66097 31.03918,42.59334 45.58813,65.93959 -264.7122,116.47703 -304.63614,-166.11248 -304.46327,-209.89051 17.90985,-0.81406 47.13893,-3.42537 55.83251,-3.42537 3.19656,45.31256 83.64401,236.05565 203.03653,147.38097 z" fill="#dc0000" stroke-width="2.162"/><g transform="matrix(1.0169114,0,0,1.0169114,-3.9437348,2.4291494)" fill="#fc0" stroke-width="3"><path d="m 744.91,428.38 c -8.1544,-11.826 -41.41,-60.889 -48.542,-74.015 -18.855,40.666 -27.473,50.504 -39.891,62.72 5.9836,10.225 40.337,58.351 45.193,65.875 13.08,-11.619 32.025,-23.42 43.24,-54.58 z"/><path d="m 739.38141,420.72121 c 0,0.50343 -14.95286,31.15462 -44.94786,50.79062"/><path d="m 732.42,409.69 c 0,0.50347 -16.00145,31.31307 -45.99645,50.94907"/><path d="m 725.6857,399.98383 c 0,0.50352 -15.67784,30.43924 -45.67284,50.07524"/><path d="m 720,391.06 c 0,0.50347 -16.40283,31.71445 -46.39783,51.34945"/><path d="m 712.79655,381.38483 c 0,0 -15.19869,33.02831 -45.19369,52.66331"/><path d="m 704.49,368.4 c 0,0.5035 -12.78283,36.14738 -42.77783,55.78238"/><path d="m 701.67,482.96 c -2.1335,-4.5184 -40.487,-55.376 -46.902,-66.318 -2.432,-4.503 -13.535,2.7196 -11.203,7.2281 6.6797,10.413 44.639,64.122 46.421,66.577 1.6912,4.605 14.05,-3.6345 11.684,-7.4871 z"/></g></g></g><g transform="translate(1.9999999e-6)"><path d="m 611.19737,225.48205 c 6.33516,-3.60729 14.23981,4.69813 12.04938,9.4289 -8.91546,10.884 -16.13736,18.99692 -11.38737,23.94216 26.25259,0.18155 21.93783,4.8405 38.7789,22.68831 -6.08164,7.97015 -8.48846,10.35623 -14.98317,18.31254 -20.45111,-16.25533 -24.23605,-0.982 -12.28226,12.94529 -4.87314,4.60782 -7.59897,6.91926 -11.74634,11.35788 -7.96933,-8.20485 -13.61034,-13.63678 -16.6082,-17.44308 3.71864,-3.13555 5.28835,-5.90805 9.27596,-9.34094 -2.70234,-2.90125 -5.8029,-5.65179 -9.50365,-9.85764 -3.00609,3.20012 -6.53213,7.36447 -9.68791,10.23318 -3.76674,-3.65234 -5.3457,-7.15255 -8.3343,-10.39487 -5.40061,4.96284 -7.43942,6.16666 -10.71519,9.25237 3.05398,2.69075 6.70612,7.69497 8.66673,9.81076 -3.47377,3.1509 -8.3702,7.10394 -10.20674,9.32812 3.37675,3.84637 5.93439,6.65884 8.5869,9.60006 4.10486,-3.38429 5.67355,-5.80647 9.01553,-9.07004 5.65341,6.38397 8.03522,9.00943 15.41536,17.03225 -5.79518,6.08499 -12.20802,10.47724 -16.23499,14.42997 -17.10547,-18.70303 -29.72534,-8.05038 -14.78793,10.75079 -2.14202,2.43693 -10.18844,8.06339 -15.64315,12.42869 -24.10385,-22.3568 -18.93794,-24.9306 -20.21213,-40.61036 1.14708,-16.48922 -21.44056,6.59122 -122.7107,91.02069 -22.85712,10.18844 -30.38125,1.21277 -21.15989,-11.90295 50.61066,-42.22114 220.12064,-183.3898 224.41201,-183.93893 z" fill="#c5d2df" fill-rule="evenodd" stroke="#000" stroke-width="3.051"/><path d="m 150.46511,225.48226 c -6.33516,-3.60729 -14.23981,4.69813 -12.04938,9.4289 8.91546,10.884 16.13736,18.99692 11.38737,23.94216 -26.25259,0.18155 -21.93783,4.8405 -38.7789,22.68831 6.08164,7.97015 8.48846,10.35623 14.98317,18.31254 20.45111,-16.25533 24.23605,-0.982 12.28226,12.94529 4.87314,4.60782 7.59897,6.91926 11.74634,11.35788 7.96933,-8.20485 13.61034,-13.63678 16.6082,-17.44308 -3.71864,-3.13555 -5.28835,-5.90805 -9.27596,-9.34094 2.70234,-2.90125 5.8029,-5.65179 9.50365,-9.85764 3.00609,3.20012 6.53213,7.36447 9.68791,10.23318 3.76674,-3.65234 5.3457,-7.15255 8.3343,-10.39487 5.40061,4.96284 7.43942,6.16666 10.71519,9.25237 -3.05398,2.69075 -6.70612,7.69497 -8.66673,9.81076 3.47377,3.1509 8.3702,7.10394 10.20674,9.32812 -3.37675,3.84637 -5.93439,6.65884 -8.5869,9.60006 -4.10486,-3.38429 -5.67355,-5.80647 -9.01553,-9.07004 -5.65341,6.38397 -8.03522,9.00943 -15.41536,17.03225 5.79518,6.08499 12.20802,10.47724 16.23499,14.42997 17.10547,-18.70303 29.72534,-8.05038 14.78793,10.75079 2.14202,2.43693 10.18844,8.06339 15.64315,12.42869 24.10385,-22.3568 18.93794,-24.9306 20.21213,-40.61036 -1.14708,-16.48922 21.44056,6.59122 122.7107,91.02069 22.85712,10.18844 30.38125,1.21277 21.15989,-11.90295 C 324.26961,367.2032 154.75963,226.03454 150.46826,225.48541 Z" fill="#fc0" fill-rule="evenodd" stroke="#000" stroke-width="3.051"/><g transform="matrix(-1,0,0,1,761.39724,-0.36269899)"><g><g transform="translate(1.397832,-1.7009274e-4)"><g transform="matrix(1.0169114,0,0,1.0169114,-1.909913,0.39532644)" fill="#dc0000" fill-rule="evenodd" stroke="#460000"><path d="m 149.17,693.56 c 43.627,2.674 25.838,12.393 60.699,13.37 2.4735,3.8738 1.8448,8.3337 2.7179,10.696 -51.28,-0.80875 -19.594,-10.184 -62.964,-11.587 -1.7829,-0.3508 -0.81207,-8.9457 -0.45298,-12.479 z" stroke-width="2.856"/><path d="m 160.1,707.37 c 1.15,-6.4935 -0.78882,-8.3985 -3.9605,-13.095" stroke-width="2.835"/><path d="m 173.43,709.61 c 1.15,-6.4935 -0.53883,-8.7736 -3.7105,-13.47" stroke-width="2.835"/><path d="m 187.92,716.29 c 1.15,-6.4935 -2.9204,-9.517 -3.0789,-14.213" stroke-width="2.835"/><path d="m 201.63,716.43 c 1.15,-6.4935 -0.53883,-5.7603 -3.7105,-10.456" stroke-width="2.835"/></g><path d="m 21.391961,138.06028 c 0,0 0.02442,0.33368 0.03867,0.49695 1.202322,13.78002 11.995966,10.69804 15.152356,14.78878 2.506919,3.5515 -2.460018,12.84832 9.993015,15.03499 0,0 -7.157286,-7.91356 -3.608668,-15.93646 0.544731,-1.23156 1.81381,-2.88352 0.484444,-4.70581 -1.355754,-1.85846 -3.50979,-2.28513 -6.78521,-1.26441 -6.701997,2.08854 -15.274607,-8.41404 -15.274607,-8.41404 z" transform="matrix(4.3333646,0,0,4.3333646,-33.53435,-28.88853)" fill="#fc0" fill-rule="evenodd" stroke="#000" stroke-width=".704"/><path d="m 18.682,143.85 c -1.6655,-0.15785 -5.026201,0.78791 -7.1563,6.1339 -2.9921,11.52 4.5762,10.256 10.223,17.233 3.613,4.9401 3.1578,12.268 12.998,11.976 1.8399,0 5.9601,-0.14958 7.3023,-6.426 1.531473,-10.14166 -9.7851,-8.7628 -9.7851,-8.7628 0,0 9.500153,6.05547 0.87628,8.4707 -4.8425,1.1502 -3.4528,-6.1286 -6.28,-9.347 -4.6724,-6.2784 -12.799,-4.408 -8.4707,-13.29 2.5786,-1.4354 5.5498,1.3096 6.7181,5.2577 1.4605,-2.014 1.81412,-9.9476 -6.42558,-11.2455 z" transform="matrix(4.3333646,0,0,4.3333646,-33.53435,-28.88853)" fill="#fc0" fill-rule="evenodd" stroke="#000" stroke-width=".704"/><path d="m 31.198643,152.95355 c -2.5783,3.5051 2.1515,7.5916 4.9656,4.8195 2.3957,-2.9386 -1.90351,-7.67064 -4.9656,-4.8195 z" transform="matrix(4.3333646,0,0,4.3333646,-33.53435,-28.88853)" fill="#fc0" fill-rule="evenodd" stroke="#000" stroke-width=".704"/><path d="m 43.672,143.77 c -2.5783,3.5051 2.1515,7.5916 4.9656,4.8195 2.3957,-2.9386 -1.764,-7.7404 -4.9656,-4.8195 z" transform="matrix(4.3333646,0,0,4.3333646,-33.53435,-28.88853)" fill="#fc0" fill-rule="evenodd" stroke="#000" stroke-width=".704"/><g transform="matrix(4.3333646,0,0,4.3333646,-33.534353,-28.88853)" fill="#dc0000" stroke="#460000"><g fill-rule="evenodd"><path d="m 32.323,190.65 c 2.1383,0.60249 7.0249,-0.47321 7.2621,-3.6426 5.1086,4.3987 8.2928,13.567 6.7196,16.299 -3.6098,1.5009 -9.0998,1.4382 -11.55,2.8937 -2.1404,-0.65967 -2.4419,-12.23 -2.4317,-15.55 z" stroke-width=".665"/><path d="m 34.382,193.23 c 0.50714,5.5238 -0.0072,7.9703 1.4654,12.068" stroke-width=".333" stroke-linecap="round"/><path d="m 35.671,194.05 c 0.50714,5.5238 0.73575,7.2274 1.7131,10.83" stroke-width=".333" stroke-linecap="round"/><path d="m 36.662,192.56 c 1.0024,6.5144 1.4787,8.7133 2.2084,12.068" stroke-width=".333" stroke-linecap="round"/><path d="m 38.148,192.56 c 1.2501,5.7714 1.280057,7.72029 2.752757,11.81829" stroke-width=".333" stroke-linecap="round"/><path d="m 39.386,193.31 c 1.7454,5.5238 2.246129,7.42363 2.975829,10.77823" stroke-width=".333" stroke-linecap="round"/><path d="m 40.129,191.57 c 1.993,3.5426 2.319715,8.11747 3.792415,12.21517" stroke-width=".333" stroke-linecap="round"/><path d="m 41.367,191.08 c 2.4883,4.7809 2.319715,8.16653 3.792415,12.26423" stroke-width=".333" stroke-linecap="round"/></g><path d="m 38.926,189.39 a 5.864,2.1209723 0 1 1 -11.728,0 5.864,2.1209723 0 1 1 11.728,0 z" transform="rotate(-17.909903,31.391933,179.3859)" stroke-width=".622"/></g><g transform="matrix(1.0169114,0,0,1.0169114,-1.909913,0.39532644)" fill="#dc0000" fill-rule="evenodd" stroke="#460000" stroke-width="2.835"><path d="m 120.11,746.88 c -4.1766,-15.842 -4.16594,-36.29431 2.42726,-52.06431 -21.213,0.14781 -21.86836,25.32531 -15.01736,58.22331 4.4032,-4.632 4.93647,-3.56481 11.46937,-5.82321 z"/><path d="m 106.28,747.2 c 1.15,-11.846 7.6605,-15.547 11.626,-18.458"/><path d="m 104.0708,730.00175 c 2.0421,-7.3856 10.37201,-14.60043 14.33701,-17.51243"/><path d="m 104.72968,712.23 c 6.8395,-3.4802 9.56752,-11.11 15.03932,-11.009"/></g><path d="m 105.71999,772.43447 c 0.38962,19.57148 31.29545,18.0512 24.43842,-5.31875 -1.04905,-8.56036 -22.43307,-11.66703 -24.43842,5.31875 z" fill="#dc0000" fill-rule="evenodd" stroke="#460000" stroke-width="2.883"/><path d="m 62.701588,702.54215 a 14.056767,14.056767 0 0 1 -28.113533,0 14.056767,14.056767 0 1 1 28.113533,0 z" fill="#fc0" stroke="#000" stroke-width="3.051"/></g><g transform="matrix(-1,0,0,1,759.73466,-1.7009274e-4)"><g transform="matrix(1.0169114,0,0,1.0169114,-1.909913,0.39532644)" fill="#dc0000" fill-rule="evenodd" stroke="#460000"><path d="m 149.17,693.56 c 43.627,2.674 25.838,12.393 60.699,13.37 2.4735,3.8738 1.8448,8.3337 2.7179,10.696 -51.28,-0.80875 -19.594,-10.184 -62.964,-11.587 -1.7829,-0.3508 -0.81207,-8.9457 -0.45298,-12.479 z" stroke-width="2.856"/><path d="m 160.1,707.37 c 1.15,-6.4935 -0.78882,-8.3985 -3.9605,-13.095" stroke-width="2.835"/><path d="m 173.43,709.61 c 1.15,-6.4935 -0.53883,-8.7736 -3.7105,-13.47" stroke-width="2.835"/><path d="m 187.92,716.29 c 1.15,-6.4935 -2.9204,-9.517 -3.0789,-14.213" stroke-width="2.835"/><path d="m 201.63,716.43 c 1.15,-6.4935 -0.53883,-5.7603 -3.7105,-10.456" stroke-width="2.835"/></g><path d="m 21.391961,138.06028 c 0,0 0.02442,0.33368 0.03867,0.49695 1.202322,13.78002 11.995966,10.69804 15.152356,14.78878 2.506919,3.5515 -2.460018,12.84832 9.993015,15.03499 0,0 -7.157286,-7.91356 -3.608668,-15.93646 0.544731,-1.23156 1.81381,-2.88352 0.484444,-4.70581 -1.355754,-1.85846 -3.50979,-2.28513 -6.78521,-1.26441 -6.701997,2.08854 -15.274607,-8.41404 -15.274607,-8.41404 z" transform="matrix(4.3333646,0,0,4.3333646,-33.53435,-28.88853)" fill="#c5d2df" fill-rule="evenodd" stroke="#000" stroke-width=".704"/><path d="m 18.682,143.85 c -1.6655,-0.15785 -5.026201,0.78791 -7.1563,6.1339 -2.9921,11.52 4.5762,10.256 10.223,17.233 3.613,4.9401 3.1578,12.268 12.998,11.976 1.8399,0 5.9601,-0.14958 7.3023,-6.426 1.531473,-10.14166 -9.7851,-8.7628 -9.7851,-8.7628 0,0 9.500153,6.05547 0.87628,8.4707 -4.8425,1.1502 -3.4528,-6.1286 -6.28,-9.347 -4.6724,-6.2784 -12.799,-4.408 -8.4707,-13.29 2.5786,-1.4354 5.5498,1.3096 6.7181,5.2577 1.4605,-2.014 1.81412,-9.9476 -6.42558,-11.2455 z" transform="matrix(4.3333646,0,0,4.3333646,-33.53435,-28.88853)" fill="#c5d2df" fill-rule="evenodd" stroke="#000" stroke-width=".704"/><path d="m 31.198643,152.95355 c -2.5783,3.5051 2.1515,7.5916 4.9656,4.8195 2.3957,-2.9386 -1.90351,-7.67064 -4.9656,-4.8195 z" transform="matrix(4.3333646,0,0,4.3333646,-33.53435,-28.88853)" fill="#c5d2df" fill-rule="evenodd" stroke="#000" stroke-width=".704"/><path d="m 43.672,143.77 c -2.5783,3.5051 2.1515,7.5916 4.9656,4.8195 2.3957,-2.9386 -1.764,-7.7404 -4.9656,-4.8195 z" transform="matrix(4.3333646,0,0,4.3333646,-33.53435,-28.88853)" fill="#c5d2df" fill-rule="evenodd" stroke="#000" stroke-width=".704"/><g transform="matrix(4.3333646,0,0,4.3333646,-33.534353,-28.88853)" fill="#dc0000" stroke="#460000"><g fill-rule="evenodd"><path d="m 32.323,190.65 c 2.1383,0.60249 7.0249,-0.47321 7.2621,-3.6426 5.1086,4.3987 8.2928,13.567 6.7196,16.299 -3.6098,1.5009 -9.0998,1.4382 -11.55,2.8937 -2.1404,-0.65967 -2.4419,-12.23 -2.4317,-15.55 z" stroke-width=".665"/><path d="m 34.382,193.23 c 0.50714,5.5238 -0.0072,7.9703 1.4654,12.068" stroke-width=".333" stroke-linecap="round"/><path d="m 35.671,194.05 c 0.50714,5.5238 0.73575,7.2274 1.7131,10.83" stroke-width=".333" stroke-linecap="round"/><path d="m 36.662,192.56 c 1.0024,6.5144 1.4787,8.7133 2.2084,12.068" stroke-width=".333" stroke-linecap="round"/><path d="m 38.148,192.56 c 1.2501,5.7714 1.280057,7.72029 2.752757,11.81829" stroke-width=".333" stroke-linecap="round"/><path d="m 39.386,193.31 c 1.7454,5.5238 2.246129,7.42363 2.975829,10.77823" stroke-width=".333" stroke-linecap="round"/><path d="m 40.129,191.57 c 1.993,3.5426 2.319715,8.11747 3.792415,12.21517" stroke-width=".333" stroke-linecap="round"/><path d="m 41.367,191.08 c 2.4883,4.7809 2.319715,8.16653 3.792415,12.26423" stroke-width=".333" stroke-linecap="round"/></g><path d="m 38.926,189.39 a 5.864,2.1209723 0 1 1 -11.728,0 5.864,2.1209723 0 1 1 11.728,0 z" transform="rotate(-17.909903,31.391933,179.3859)" stroke-width=".622"/></g><g transform="matrix(1.0169114,0,0,1.0169114,-1.909913,0.39532644)" fill="#dc0000" fill-rule="evenodd" stroke="#460000" stroke-width="2.835"><path d="m 120.11,746.88 c -4.1766,-15.842 -4.16594,-36.29431 2.42726,-52.06431 -21.213,0.14781 -21.86836,25.32531 -15.01736,58.22331 4.4032,-4.632 4.93647,-3.56481 11.46937,-5.82321 z"/><path d="m 106.28,747.2 c 1.15,-11.846 7.6605,-15.547 11.626,-18.458"/><path d="m 104.0708,730.00175 c 2.0421,-7.3856 10.37201,-14.60043 14.33701,-17.51243"/><path d="m 104.72968,712.23 c 6.8395,-3.4802 9.56752,-11.11 15.03932,-11.009"/></g><path d="m 105.71999,772.43447 c 0.38962,19.57148 31.29545,18.0512 24.43842,-5.31875 -1.04905,-8.56036 -22.43307,-11.66703 -24.43842,5.31875 z" fill="#dc0000" fill-rule="evenodd" stroke="#460000" stroke-width="2.883"/><path d="m 62.701588,702.54215 a 14.056767,14.056767 0 0 1 -28.113533,0 14.056767,14.056767 0 1 1 28.113533,0 z" fill="#c5d2df" stroke="#000" stroke-width="3.051"/></g></g></g></g><g transform="translate(13.695992,-6.01793)" stroke="#000"><g transform="translate(-28.717202,-500.353)"><g><path d="m 395.85209,1097.7989 a 155,155 0 0 0 -155,155 155,155 0 0 0 155,155 155,155 0 0 0 155,-155 155,155 0 0 0 -155,-155 z m 0,44.2857 A 110.71429,110.71429 0 0 1 506.56638,1252.7989 110.71429,110.71429 0 0 1 395.85209,1363.5132 110.71429,110.71429 0 0 1 285.1378,1252.7989 110.71429,110.71429 0 0 1 395.85209,1142.0846 Z" fill="#fff" fill-rule="evenodd" stroke-width="3"/><g transform="translate(8.1905364e-6)"><g transform="translate(-0.47508,-70.667002)" fill-rule="evenodd"><path d="m 372.47752,1431.3567 c 16.5468,2.9117 32.59348,3.5728 47.69929,0 v 92.6993 h -47.69929 z" fill="#fff" stroke-width="2.301"/><g transform="matrix(1,0,0,0.73557175,112.89198,422.60812)"><path d="m 259.42393,1497.4037 h 48.0225 v 68.0226 h -48.0225 z" stroke-width="1.977"/><circle r="25" cy="1566.415" cx="283.435" stroke="none"/></g></g><path display="block" d="m 411.51101,1422.036 -14.30794,-5.0447 5.21096,14.2489 -12.94122,0.075 5.0447,-14.3079 -14.24897,5.2111 -0.0754,-12.9412 14.30794,5.0446 -5.21106,-14.2489 12.94121,-0.075 -5.04469,14.3079 14.24896,-5.2109 z" color="#000" fill="#dc0000" stroke-width="1.525" stroke-linecap="round"/></g><path display="block" d="m 314.53076,1366.7055 14.79097,3.3782 -12.01582,9.262 10.90027,6.9763 3.37828,-14.7909 9.26203,12.0168 6.97632,-10.9003 -14.79098,-3.3781 12.01684,-9.2621 -10.90027,-6.9763 -3.37828,14.791 -9.26203,-12.0158 z" color="#000" fill="#dc0000" stroke-width="1.525" stroke-linecap="round"/><path display="block" d="m 477.17342,1366.7055 -14.79097,3.3782 12.01582,9.262 -10.90027,6.9763 -3.37828,-14.791 -9.26203,12.0169 -6.97632,-10.9003 14.79098,-3.3782 -12.01684,-9.262 10.90027,-6.9763 3.37828,14.791 9.26203,-12.0159 z" color="#000" fill="#dc0000" stroke-width="1.525" stroke-linecap="round"/></g></g></g><g transform="translate(1.710812)" fill-rule="evenodd" stroke="#000"><path d="M 379.59019,7.0169332 C 369.57361,10.589343 239.25511,148.46931 243.17022,201.19617 c 5.10815,18.10814 20.9799,85.33412 27.11899,96.76827 22.84288,5.63816 203.28059,3.38825 222.84597,-0.61781 5.50536,-2.002 22.00901,-87.39642 22.00901,-96.45914 C 516.77125,135.6933 392.68801,10.738829 379.59019,7.0169332 Z" fill="#c5d2df" stroke-width="3.844"/><path d="m 297.70718,96.009901 c -8.05211,10.097019 -17.63935,24.978399 -27.89592,40.490359 3.66231,2.49438 85.20193,-0.97219 88.05538,3.65631 4.83806,7.04435 4.01721,34.28313 -1.99691,33.17775 -91.80879,-0.99844 -89.71599,3.5415 -100.37932,-12.86495 -15.55773,36.10748 -12.84563,39.96361 -2.97925,78.94894 5.55976,-33.94756 12.44903,-28.55182 103.0538,-27.0834 8.65504,6.90828 6.11154,26.43563 3.1146,35.51359 -0.84525,6.33221 -90.59969,2.21138 -102.13858,2.99542 3.88145,20.20094 7.43992,30.6009 13.23612,46.98944 97.19029,7.43444 126.3309,7.43444 224.04592,-0.99846 5.92198,-11.39653 10.47012,-35.77495 11.37517,-46.98945 -11.78905,-0.78402 -104.31477,4.3353 -106.44012,-1.99691 -3.06182,-9.07868 -5.5923,-28.60571 3.25005,-35.51359 92.56436,-1.46842 101.07447,-6.86375 106.75188,27.0834 7.01934,-42.97875 11.38069,-38.84805 -4.51445,-78.94894 -10.89417,16.40584 -12.43785,12.86495 -102.67755,12.86495 -5.10266,1.1063 -6.9396,-26.13259 -1.99691,-33.17775 2.91569,-4.62847 88.34215,-1.16192 92.08438,-3.65631 -10.47825,-15.51095 -20.21111,-30.39243 -28.43793,-40.490358 -11.20738,5.870528 -12.65444,10.131698 -83.77316,9.885498 -73.11593,-0.24624 -70.77195,-4.01507 -81.74137,-9.885498 z" fill="#fc0" stroke-width="3.051"/></g><path d="M 381.301,7.0169332 C 371.28442,10.589343 239.25472,148.46931 243.16983,201.19617 c 5.10815,18.10814 20.9799,85.33412 27.11899,96.76827 22.84288,5.63816 203.28059,3.38825 222.84597,-0.61781 5.50536,-2.002 22.00901,-87.39642 22.00901,-96.45914 C 516.77086,135.6933 394.39882,10.735229 381.301,7.0133333 Z" fill="none" stroke="#000" stroke-width="3.604" stroke-linecap="round" stroke-linejoin="round"/><g transform="translate(-0.386218)"><g transform="translate(0.06828647,14.014517)"><g transform="matrix(1.0169102,0,0,1.0169102,-2.6251418,-13.98085)" fill-rule="evenodd" stroke="#000"><path d="m 158.24,376.61665 c 0,50.406 0.95816,242.24977 27.66446,289.82205 82.082,207.56 293.0178,199.84409 384.1578,9.9e-4 25.927,-48.122 25.60574,-241.84279 25.71474,-289.82279 -143.29,14.815 -311.197,17.11595 -437.537,-2.5e-4 z" fill="#dc0000" stroke-width="2.835"/><path d="m 156.04493,375.06981 c 0,50.406 2.90147,241.39598 29.85907,291.36889 C 291.26515,664.104 369.34454,470.15 377.85454,388.36 c -75.26,-0.28 -158.63961,-4.74019 -221.80961,-13.29019 z" fill="#fc0" stroke-width="4"/><path d="M 570.06226,666.43969 C 594.48226,618.31969 596.6,423.05 596.71,375.07 c -71.65,7.41 -143.59546,13.57007 -218.85546,13.29007 35.68,189.92 132.69673,274.72215 192.20772,278.07962 z" stroke-width="4" fill="#fc0"/></g><g transform="matrix(1.0169102,0,0,1.0169102,-0.47538414,-13.98085)" fill="#fc0" fill-rule="evenodd" stroke="#000" stroke-width="3"><path d="m 321.62,599.37 c 10.084,0.40262 95.505,-1.4094 111.16,-0.32368 7.5356,7.163 -0.7239,58.376 -10.874,58.97 -7.9719,0.48391 -66.474,0.71074 -92.559,0.60578 -6.9917,1.8257 -22.772,-57.81 -7.7263,-59.252 z"/><path d="m 373.93,594.45 c -18.44,6.4657 -38.368,47.583 -85.248,69.654 -13.49,9.3955 -4.6568,19.565 5.0912,26.265 -10.572,13.85 6.425,23.738 13.42,32.604 -1.2797,12.104 6.766,17.686 17.016,19.5 3.4348,14.59 13.659,22.857 30.541,21.937 10.433,15.024 28.856,11.343 42.614,-0.28756 12.289,3.258 26.478,-3.139 29.247,-18.217 13.146,-4.0702 21.578,-12.316 21.013,-30.344 8.5412,-4.5051 17.622,-13.162 14.481,-30.272 4.7588,-5.3345 12.802,-14.498 -2.1252,-24.581 -71.665,-47.396 -62.88253,-61.151 -78.21953,-66.21 C 378.90798,593.19996 373.93,594.45 373.93,594.45 Z"/><path d="m 293.74,689.9 c 33.019,-17.749 47.556,-38.375 61.833,-60.673" stroke-linecap="round"/><path d="m 307.27,721.98 c 27.222,-19.682 34.03,-52.094 48.307,-74.393" stroke-linecap="round"/><path d="m 324.08,742.07 c 22.391,-22.58 25.338,-57.505 37.293,-84.828" stroke-linecap="round"/><path d="M 354.61,763.91 C 367.34,722.97 367.38,695 370.06,663.04" stroke-linecap="round"/><path d="M 447.26,715.41 C 420.81,695.73 410.91,666.02 396.63,643.72" stroke-linecap="round"/><path d="M 397.21,763.72 C 384.48,722.78 384.82,695.97 382.14,664.01" stroke-linecap="round"/><path d="m 460.88,684.97 c -31.087,-8.088 -38.861,-30.066 -58.935,-54.296" stroke-linecap="round"/><path d="m 376.99,602.8 c 14.415,4.4409 9.9376,5.8178 16.644,14.518" stroke-linecap="round"/><path d="M 426.91,745.9 C 399.688,726.218 404.077,679.519 389.8,657.221" stroke-linecap="round"/></g><path d="m 158.29073,369.00446 c -0.49438,51.30782 -1.0665,207.8246 27.63047,294.72433 83.47002,211.06989 306.45422,200.94227 391.15578,-3.2e-4 26.36543,-48.93575 26.03875,-245.93239 26.1496,-294.72375 -145.71307,15.06553 -316.45941,17.40538 -444.93585,-2.6e-4 z" fill="none" stroke="#000" stroke-width="6.101"/><path d="m 231.99638,551.08565 c -6.12485,5.18319 -38.04363,22.53981 -34.34919,28.89245 17.12884,1.06918 42.08381,-30.00698 27.50539,3.26306 11.93344,-4.29197 18.95012,-10.37553 22.94251,-19.97516 14.09641,4.65724 -9.9765,18.88402 22.03949,21.55239 22.80828,-20.94123 1.36795,-17.91084 8.1842,-28.75618 5.94516,2.57695 8.04345,8.10996 18.14574,5.87387 -12.90865,-15.40415 10.38673,-5.47931 23.26284,-22.47371 -8.80654,-2.49296 -31.07677,-2.92118 -42.50786,1.67322 -27.45556,14.81943 -34.1092,11.5399 -45.222,9.94894 z" fill="#dc0000" fill-rule="evenodd" stroke="#000" stroke-width="2.034"/><path d="m 238.01649,522.85622 c 1.9964,-3.49746 18.70301,-17.05358 23.45809,-22.13203 2.78094,-1.95898 38.81037,-3.97429 26.51085,7.21793 -7.06438,4.11828 -8.90895,26.34204 -9.97742,30.72899 -17.44509,14.73198 -36.84164,8.49384 -44.16339,4.33275 0,-8.27063 1.16436,-14.96079 4.17177,-20.14703 z" fill="#520" fill-rule="evenodd" stroke="#000" stroke-width="2.034"/><path d="m 208.25153,455.60795 c -1.11311,23.1825 -6.96431,15.87905 -11.49414,30.81441 1.46374,4.49485 8.92298,5.0572 10.86366,8.07813 -6.07157,9.26884 5.51582,17.21223 2.63939,20.26601 0.6917,5.10163 -4.88422,12.5446 -2.17192,17.28747 11.23991,10.24436 17.56916,0.62594 33.87531,-1.20727 6.85408,0.39992 14.14014,-3.53722 15.00248,-10.05867 1.40313,-5.22224 4.84202,-11.86022 7.64574,-21.58189 -2.58661,-10.47824 -9.96694,5.83483 -7.67493,-25.08717 0.73937,-20.2416 -0.50618,-26.26374 -22.31813,-25.29361 -6.41639,0.61222 -26.45695,-9.77688 -26.36746,6.78167 z" fill="#520" fill-rule="evenodd" stroke="#000" stroke-width="2.034"/><path d="m 216.01055,463.99746 c 5.86453,-2.94416 15.20383,-6.67683 24.4933,8.9786" fill="none" stroke="#000" stroke-width="3.2" stroke-linecap="round"/><path d="m 217.13932,473.14965 c 1.2748,-2.18168 4.97432,-3.8789 7.57009,-4.7208 2.97466,-0.58568 5.06462,0.35611 7.21915,3.59722 2.50424,3.76724 1.81142,6.65669 -5.15625,6.88916 -3.10137,0.1034 -3.35275,-0.11797 -4.83724,-0.17019 -2.03453,-0.0716 -4.41298,-4.41533 -4.79575,-5.59535 z" fill="#fff" fill-rule="evenodd" stroke="#000" stroke-width=".894"/><path d="m 211.55649,448.16417 c -4.53603,0.49923 -8.44748,-10.68773 0.54547,-18.12948 17.24781,-3.40319 27.61521,-14.16759 73.69752,-4.67026 27.51555,24.78414 23.39402,37.14773 16.65597,47.5853 -3.11643,4.82737 7.95285,17.37798 6.58856,22.41982 -8.90854,12.23648 -21.37647,21.15376 -23.52113,17.12273 -10.00813,-6.31806 -18.65726,-10.69891 -23.43572,-11.92836 -5.77422,-4.80144 -5.29118,-12.95747 -6.78686,-19.65382 -0.86543,-6.42687 -0.5018,-13.00018 -3.40278,-18.77013 -8.7314,-5.45898 -0.94762,-19.75856 -40.34083,-13.9754 z" fill="#311b16" fill-rule="evenodd" stroke="#000" stroke-width="2.034"/><path d="m 203.37036,499.93507 c -2.58397,12.51918 4.73738,5.84387 8.02118,10.78535 -5.54938,1.00222 -7.4209,2.92097 -7.3251,6.94336 3.19614,7.52056 15.8699,1.79322 15.62991,-7.89936 -0.54704,-7.50114 -13.56457,-12.82832 -16.32548,-9.82976 z" fill="#dc0000" fill-rule="evenodd" stroke="#000" stroke-width="2.034"/><path d="m 233.40989,542.69614 c -8.14423,-2.40733 -9.16185,7.49463 0.65854,9.14568 16.53699,6.49603 34.2475,0.83435 41.87331,-5.4004 7.22708,-4.22485 9.02488,-12.50494 -4.3658,-7.63049 -14.52148,7.13587 -22.59371,8.60327 -38.16667,3.88531 z" fill="#fc0" fill-rule="evenodd" stroke="#000" stroke-width="2.034"/><path d="m 226.47456,473.59709 c -0.29423,2.71434 -1.49354,4.99486 -2.51746,4.7868 -1.02393,-0.20803 -1.68787,-2.86697 -1.39358,-5.58141 0.29424,-2.71434 1.23819,-4.01975 2.26212,-3.81179 1.02393,0.20803 1.94321,1.89196 1.64892,4.6064 z" display="block" color="#000" fill="#0e0031" stroke="#000" stroke-width=".894"/><path d="m 259.44279,497.32161 c 5.97994,-19.17893 21.41206,-21.4985 19.15961,-6.72737 -21.21275,39.49476 -21.4863,18.83928 -20.62701,12.13784" fill="#520" fill-rule="evenodd" stroke="#000" stroke-width=".894"/><path d="m 263.29688,497.38262 c 7.0657,-11.85717 13.46796,-13.96828 9.47435,-5.13611" fill="none" stroke="#000" stroke-width=".894"/><path d="m 269.36783,505.87382 c -0.76174,1.43598 -2.3695,2.76356 -2.71596,4.40221 1.77654,1.85321 3.47844,3.8969 4.31241,6.37979 2.13175,5.4305 -0.47715,11.97818 -5.46965,14.82756 -5.28499,3.21263 -12.69206,1.49201 -16.33972,-3.40614 -3.58644,-4.59175 -2.97863,-11.59379 0.90905,-15.81295 2.94446,-3.28655 7.76218,-4.78131 12.04937,-3.72942 1.17494,-1.14738 2.13602,-3.15669 1.18266,-4.70097 -1.23717,-1.00569 -3.0191,-0.74781 -4.52443,-0.84283 -7.33843,0.0653 -14.3059,5.1894 -16.47496,12.21615 -2.36971,6.90126 0.1287,15.10925 5.96326,19.49925 5.77218,4.59847 14.45334,4.96842 20.58938,0.86236 6.71395,-4.31272 9.85752,-13.46898 6.92872,-20.94123 -1.1725,-3.19178 -3.66376,-6.73695 -6.41013,-8.75378 z" display="block" color="#000" fill="#d4aa00" stroke="#000" stroke-width=".721" stroke-linecap="round"/><path d="m 266.1544,497.33178 a 1.4191999,3.04107 30.28 1 1 -2.45106,-1.4312 1.4191999,3.04107 30.28 1 1 2.45106,1.4312 z" stroke="#000" stroke-width=".605"/><path d="m 437.72749,413.94514 c -7.75577,-15.72957 -0.10057,-11.54092 4.78883,-5.2317 4.7624,6.19197 7.13607,4.62653 15.0879,11.36601 1.51214,1.74705 2.45645,3.89019 3.27008,6.02976 -13.52593,-1.15337 -13.11906,-6.56272 -23.14681,-12.16407 z" fill="#dc0000" fill-rule="evenodd" stroke="#600000" stroke-width="1.081"/><path d="m 422.04673,449.63869 c -5.74676,1.29168 -5.53962,8.71634 -3.94591,13.12424 2.79996,8.26362 12.65443,9.18239 19.90093,11.09652 7.31362,1.23372 30.79611,11.99446 37.0257,12.29038 6.06353,3.16198 16.5553,-22.56625 10.26469,-24.96006 -47.72156,14.01506 -55.53519,-12.35139 -63.24541,-11.55108 z" fill="#520" fill-rule="evenodd" stroke="#000" stroke-width="3.051"/><path d="m 492.12202,541.60805 c -6.37064,-3.8903 -11.69854,-6.44193 -20.04839,-9.59496 -6.94183,-0.9518 -14.29979,-3.08012 -13.65405,6.10065 0.39234,8.31873 28.89855,16.43123 34.90442,20.19177 5.55488,5.31712 11.80735,-0.076 15.59127,-4.31872 5.52193,-2.75216 11.91514,-1.01012 17.59458,-3.20103 5.77351,-1.10284 11.67006,-4.01842 14.99739,-8.98013 -1.50146,-6.3444 -1.86186,-13.45677 -2.5619,-20.37176 -4.41613,-8.8037 -16.13023,-6.37735 -24.05806,-9.10135 -19.25926,-2.01134 -9.92087,31.16597 -22.76526,29.27553 z" fill="#520" fill-rule="evenodd" stroke="#000" stroke-width="3.051"/><path d="m 514.84996,430.67331 c 11.80734,-8.98338 3.20805,-18.23117 -18.19558,-14.0598 -13.92556,-18.12846 -31.72658,-4.81324 -45.14471,-13.45169 -3.03863,-0.60772 -2.21432,1.61384 -4.73626,4.955 0.77871,0.66744 17.76949,18.25964 18.77217,19.76263 1.2028,1.8042 -18.2332,-10.19554 -20.58328,-10.66535 -4.3898,-0.87794 -1.76546,8.2265 -1.71655,8.71543 0.13045,1.3051 12.40021,17.1146 15.14078,18.48539 7.45578,-0.66841 17.11561,17.79288 17.59051,20.16838 -1.21683,12.1114 -2.65993,14.77367 -12.4063,30.188 -13.74151,3.88968 -29.97242,-15.71432 -34.73664,-4.96232 -1.96935,0 2.97995,9.67051 3.24557,9.76712 24.2167,14.06488 30.21444,11.79819 41.4157,15.87193 1.77207,0.64443 15.74788,-12.12462 22.33033,-27.70673 2.25531,-1.97342 -6.24382,9.9407 -5.78937,10.3379 11.01009,24.93363 36.43691,38.21549 37.72636,39.18257 1.30673,-6.91 0.10908,-17.87321 4.45366,-28.84466 -1.27562,8.03237 -11.71481,35.77389 5.78937,49.62319 2.13337,19.68941 -40.38354,6.13014 -46.98126,10.59214 -1.00609,9.74342 8.80055,15.16213 19.6884,14.63333 6.29895,3.88247 28.53349,0 39.69916,8.27064 10.49045,-39.46629 18.94199,-24.31636 21.50358,-66.99202 2.21494,0.3229 6.18872,19.02538 4.89175,23.8557 -0.58276,2.91386 8.3406,5.6646 6.62975,-29.67344 -5.40295,-31.68285 -7.40616,-71.9647 -68.58856,-88.05324 z" fill="#520" fill-rule="evenodd" stroke="#000" stroke-width="3.051"/><path d="m 506.05369,432.72747 c 23.08996,-2.06616 17.99117,-21.13648 -8.34467,-16.56547" fill="none" stroke="#000" stroke-width="1.211"/><path d="m 499.54546,420.81945 c 21.38562,-4.80165 15.68076,12.06462 2.86881,6.53131" fill="none" stroke="#000" stroke-width=".721"/><path display="block" transform="rotate(48.738712)" d="m 682.512,-117.033 h 60.045 v 51.719 h -60.045 z" color="#000" fill="#dc0000" stroke="#000" stroke-width="3.051"/><path d="m 538.03551,514.36502 c 0.21667,0 4.13537,-3.30821 9.92474,-0.82706" fill="none" stroke="#000" stroke-width="2.018"/><path d="m 538.03551,436.67308 c 3.52492,0 4.13537,0 6.61643,-2.48116" fill="none" stroke="#000" stroke-width="1.802"/><path display="block" transform="rotate(48.738712)" d="m 686.671,-123.459 h 60.045 v 51.719 h -60.045 z" color="#000" fill="#dc0000" stroke="#000" stroke-width="3.051"/><path d="m 546.31316,435.79854 c 2.48116,16.17294 3.03253,52.24274 0.82706,76.08929" fill="none" stroke="#000" stroke-width="4.068"/><path d="m 500.8166,469.70233 c 0.2119,0 6.21698,-1.05769 7.85705,-1.65411 31.74082,-3.19615 75.17814,11.57854 75.67643,11.57854" fill="none" stroke="#000" stroke-width="4.068"/><path d="m 473.62442,415.55186 c 5.61853,-5.75531 10.52095,2.24055 7.10779,3.3438 -4.25037,0.3045 -6.49042,-0.70522 -7.10779,-3.3438 z" fill="#fff" fill-rule="evenodd" stroke="#000" stroke-width="1.061"/><path d="m 451.48628,405.88104 a 1.8412176,1.5414325 0 0 1 -3.68243,0 1.8412176,1.5414325 0 1 1 3.68243,0 z" stroke="#000" stroke-width="2.018"/><path d="m 478.1395,417.00604 a 1.0790617,2.1581234 55.248 1 1 -1.23016,-1.77319 1.0790617,2.1581234 55.248 1 1 1.23016,1.77319 z" stroke="#000" stroke-width=".605"/><g transform="matrix(1.0578384,0,0,1.0169102,819.94487,-6.3462127)" fill="#dc0000" stroke="#000"><g><path d="m -581.86,435.05 c 17.685,-1.5307 63.67,8.1121 98.284,15.196 10.597,-7.4436 22.289,-19.682 25.245,-25.735 -13.394,-2.8188 -26.034,-6.6945 -38.848,12.745 -2.4379,0.98726 -7.8997,1.2454 -7.353,-1.8382 2.4404,-9.2849 -5.121,-20.509 -11.397,-1.5931 -2.5285,0.72979 -5.1341,3.0783 -7.3529,-2.6961 l -0.48,-6.13 c 8.2126,-7.599 8.7953,-14.04 1.7157,-19.363 l -4.6569,-7.3529 -9.9265,5.2696 c -11.19,3.2738 -6.6596,12.376 -2.9412,18.505 l -2.9412,4.902 c -3.504,3.1182 -7.4665,2.9962 -7.9657,-3.1863 -0.0433,-10.479 -9.6173,-11.148 -9.1437,-0.37513 0.33838,6.3385 -6.8544,6.2603 -6.0163,-0.13211 l -0.2812,-4.6398 c 0.0293,-1.5179 -6.0284,-13.558 -31.127,-12.5 2.0967,14.258 10.129,19.284 15.196,28.922 z" color="#000" stroke-width="1.961"/></g><path d="m -582.11,435.42 c 1.1165,3.0388 -2.8326,0.0912 4.6569,10.662 30.851,3.1632 61.221,9.6882 91.422,17.402 4.2048,-2.4011 3.6765,-8.4117 1.7157,-12.745 -28.927,-6.6681 -78.263,-19.676 -97.794,-15.319 z" color="#000" stroke-width="1.961"/></g></g></g><path style="marker:none" d="m 636.93605,480.28265 -5.24302,-11.15298 11.15407,-5.24281 5.24292,11.153 11.15407,-5.24277 5.24302,11.15316 -11.15409,5.24271 5.24303,11.15306 -11.15407,5.2427 -5.24311,-11.15306 -11.15387,5.24286 -5.24304,-11.15316 z" overflow="visible" stroke-miterlimit="8" color="#000" fill="#fc0" stroke="#000" stroke-width="2.379"/><path style="marker:none" d="m 124.7257,480.28237 5.24302,-11.15298 -11.15407,-5.24281 -5.24292,11.153 -11.15407,-5.24277 -5.243018,11.15316 11.154088,5.24271 -5.24303,11.15306 11.15407,5.2427 5.24311,-11.15306 11.15387,5.24286 5.24304,-11.15316 z" overflow="visible" stroke-miterlimit="8" color="#000" fill="#fc0" stroke="#000" stroke-width="2.379"/></svg>